HIERARCHY
ROOT Hips
{
	OFFSET 0.000000 100.481300 0.000000
	CHANNELS 6 Xposition Yposition Zposition Xrotation Yrotation Zrotation
	JOINT Spine
	{
		OFFSET -0.279200 12.230698 -2.892100
		CHANNELS 3 Xrotation Yrotation Zrotation
		JOINT Spine1
		{
			OFFSET -0.325700 14.269203 -3.374200
			CHANNELS 3 Xrotation Yrotation Zrotation
			JOINT Spine2
			{
				OFFSET -0.372300 16.307602 -0.352600
				CHANNELS 3 Xrotation Yrotation Zrotation
				JOINT Neck
				{
					OFFSET -0.418800 17.814194 8.416900
					CHANNELS 3 Xrotation Yrotation Zrotation
					JOINT Head
					{
						OFFSET 0.000000 7.031097 3.806800
						CHANNELS 3 Xrotation Yrotation Zrotation
						JOINT HeadTop_End
						{
							OFFSET 0.000000 24.646606 12.978600
							CHANNELS 3 Xrotation Yrotation Zrotation
							End Site
							{
								OFFSET 0.000000 27.854965 0.000000
							}
						}
					}
				}
				JOINT LeftShoulder
				{
					OFFSET 16.952999 14.495407 -7.737500
					CHANNELS 3 Xrotation Yrotation Zrotation
					JOINT LeftArm
					{
						OFFSET 9.308998 -2.777710 0.208600
						CHANNELS 3 Xrotation Yrotation Zrotation
						JOINT LeftForeArm
						{
							OFFSET 29.972298 0.000000 0.000000
							CHANNELS 3 Xrotation Yrotation Zrotation
							JOINT LeftHand
							{
								OFFSET 26.026505 0.000000 0.000000
								CHANNELS 3 Xrotation Yrotation Zrotation
								JOINT LeftHandThumb1
								{
									OFFSET 12.240501 -7.147949 9.207150
									CHANNELS 3 Xrotation Yrotation Zrotation
									JOINT LeftHandThumb2
									{
										OFFSET 4.138618 -2.389435 2.389433
										CHANNELS 3 Xrotation Yrotation Zrotation
										JOINT LeftHandThumb3
										{
											OFFSET 2.726913 -1.574387 1.574386
											CHANNELS 3 Xrotation Yrotation Zrotation
											JOINT LeftHandThumb4
											{
												OFFSET 3.941010 -2.275345 2.275342
												CHANNELS 3 Xrotation Yrotation Zrotation
												End Site
												{
													OFFSET -0.005798 5.087799 0.009903
												}
											}
										}
									}
								}
								JOINT LeftHandIndex1
								{
									OFFSET 24.424698 -1.985611 5.953459
									CHANNELS 3 Xrotation Yrotation Zrotation
									JOINT LeftHandIndex2
									{
										OFFSET 6.426697 0.000000 0.000000
										CHANNELS 3 Xrotation Yrotation Zrotation
										JOINT LeftHandIndex3
										{
											OFFSET 5.337898 0.000000 0.000000
											CHANNELS 3 Xrotation Yrotation Zrotation
											JOINT LeftHandIndex4
											{
												OFFSET 4.409401 0.000000 0.000000
												CHANNELS 3 Xrotation Yrotation Zrotation
												End Site
												{
													OFFSET 0.000000 4.409363 0.014373
												}
											}
										}
									}
								}
								JOINT LeftHandMiddle1
								{
									OFFSET 23.810104 0.000000 0.000000
									CHANNELS 3 Xrotation Yrotation Zrotation
									JOINT LeftHandMiddle2
									{
										OFFSET 7.176498 0.000000 0.000000
										CHANNELS 3 Xrotation Yrotation Zrotation
										JOINT LeftHandMiddle3
										{
											OFFSET 6.774902 0.000000 0.000000
											CHANNELS 3 Xrotation Yrotation Zrotation
											JOINT LeftHandMiddle4
											{
												OFFSET 5.403328 0.000000 0.000000
												CHANNELS 3 Xrotation Yrotation Zrotation
												End Site
												{
													OFFSET -0.027702 5.403244 0.017414
												}
											}
										}
									}
								}
								JOINT LeftHandRing1
								{
									OFFSET 22.908401 -0.839279 -6.020567
									CHANNELS 3 Xrotation Yrotation Zrotation
									JOINT LeftHandRing2
									{
										OFFSET 6.337502 0.000000 0.000000
										CHANNELS 3 Xrotation Yrotation Zrotation
										JOINT LeftHandRing3
										{
											OFFSET 5.779297 0.000000 0.000000
											CHANNELS 3 Xrotation Yrotation Zrotation
											JOINT LeftHandRing4
											{
												OFFSET 4.965698 0.000000 0.000000
												CHANNELS 3 Xrotation Yrotation Zrotation
												End Site
												{
													OFFSET 0.000000 4.965668 0.016186
												}
											}
										}
									}
								}
								JOINT LeftHandPinky1
								{
									OFFSET 20.037003 -1.530319 -10.950146
									CHANNELS 3 Xrotation Yrotation Zrotation
									JOINT LeftHandPinky2
									{
										OFFSET 5.254700 0.000000 0.000000
										CHANNELS 3 Xrotation Yrotation Zrotation
										JOINT LeftHandPinky3
										{
											OFFSET 4.810204 0.000000 0.000000
											CHANNELS 3 Xrotation Yrotation Zrotation
											JOINT LeftHandPinky4
											{
												OFFSET 3.647202 0.000000 0.000000
												CHANNELS 3 Xrotation Yrotation Zrotation
												End Site
												{
													OFFSET 0.000000 3.647186 0.011889
												}
											}
										}
									}
								}
							}
						}
					}
				}
				JOINT RightShoulder
				{
					OFFSET -15.141001 14.495407 -7.737500
					CHANNELS 3 Xrotation Yrotation Zrotation
					JOINT RightArm
					{
						OFFSET -9.308998 -2.777710 0.208500
						CHANNELS 3 Xrotation Yrotation Zrotation
						JOINT RightForeArm
						{
							OFFSET -29.972300 0.000000 0.000000
							CHANNELS 3 Xrotation Yrotation Zrotation
							JOINT RightHand
							{
								OFFSET -26.026505 0.000000 0.000000
								CHANNELS 3 Xrotation Yrotation Zrotation
								JOINT RightHandThumb1
								{
									OFFSET -12.240601 -7.148026 9.207092
									CHANNELS 3 Xrotation Yrotation Zrotation
									JOINT RightHandThumb2
									{
										OFFSET -4.138618 -2.389435 2.389433
										CHANNELS 3 Xrotation Yrotation Zrotation
										JOINT RightHandThumb3
										{
											OFFSET -2.726974 -1.574417 1.574421
											CHANNELS 3 Xrotation Yrotation Zrotation
											JOINT RightHandThumb4
											{
												OFFSET -3.941010 -2.275345 2.275343
												CHANNELS 3 Xrotation Yrotation Zrotation
												End Site
												{
													OFFSET 0.005814 5.087799 0.009927
												}
											}
										}
									}
								}
								JOINT RightHandIndex1
								{
									OFFSET -24.424698 -1.985657 5.953444
									CHANNELS 3 Xrotation Yrotation Zrotation
									JOINT RightHandIndex2
									{
										OFFSET -6.426697 0.000000 0.000000
										CHANNELS 3 Xrotation Yrotation Zrotation
										JOINT RightHandIndex3
										{
											OFFSET -5.337898 0.000000 0.000000
											CHANNELS 3 Xrotation Yrotation Zrotation
											JOINT RightHandIndex4
											{
												OFFSET -4.409401 0.000000 0.000000
												CHANNELS 3 Xrotation Yrotation Zrotation
												End Site
												{
													OFFSET 0.000000 4.409363 0.014408
												}
											}
										}
									}
								}
								JOINT RightHandMiddle1
								{
									OFFSET -23.810097 0.000000 0.000000
									CHANNELS 3 Xrotation Yrotation Zrotation
									JOINT RightHandMiddle2
									{
										OFFSET -7.176498 0.000000 0.000000
										CHANNELS 3 Xrotation Yrotation Zrotation
										JOINT RightHandMiddle3
										{
											OFFSET -6.774902 0.000000 0.000000
											CHANNELS 3 Xrotation Yrotation Zrotation
											JOINT RightHandMiddle4
											{
												OFFSET -5.403328 0.000000 0.000000
												CHANNELS 3 Xrotation Yrotation Zrotation
												End Site
												{
													OFFSET 0.027702 5.403244 0.017457
												}
											}
										}
									}
								}
								JOINT RightHandRing1
								{
									OFFSET -22.908302 -0.839325 -6.020576
									CHANNELS 3 Xrotation Yrotation Zrotation
									JOINT RightHandRing2
									{
										OFFSET -6.337502 0.000000 0.000000
										CHANNELS 3 Xrotation Yrotation Zrotation
										JOINT RightHandRing3
										{
											OFFSET -5.779297 0.000000 0.000000
											CHANNELS 3 Xrotation Yrotation Zrotation
											JOINT RightHandRing4
											{
												OFFSET -4.965698 0.000000 0.000000
												CHANNELS 3 Xrotation Yrotation Zrotation
												End Site
												{
													OFFSET 0.000000 4.965668 0.016226
												}
											}
										}
									}
								}
								JOINT RightHandPinky1
								{
									OFFSET -20.037003 -1.530334 -10.950259
									CHANNELS 3 Xrotation Yrotation Zrotation
									JOINT RightHandPinky2
									{
										OFFSET -5.254700 0.000000 0.000000
										CHANNELS 3 Xrotation Yrotation Zrotation
										JOINT RightHandPinky3
										{
											OFFSET -4.810204 0.000000 0.000000
											CHANNELS 3 Xrotation Yrotation Zrotation
											JOINT RightHandPinky4
											{
												OFFSET -3.647202 0.000000 0.000000
												CHANNELS 3 Xrotation Yrotation Zrotation
												End Site
												{
													OFFSET 0.000000 3.647186 0.011917
												}
											}
										}
									}
								}
							}
						}
					}
				}
			}
		}
	}
	JOINT LeftUpLeg
	{
		OFFSET 15.427100 -6.655098 0.678600
		CHANNELS 3 Xrotation Yrotation Zrotation
		JOINT LeftLeg
		{
			OFFSET 4.081073 -39.591068 13.024000
			CHANNELS 3 Xrotation Yrotation Zrotation
			JOINT LeftFoot
			{
				OFFSET -4.081074 -37.707932 -15.979700
				CHANNELS 3 Xrotation Yrotation Zrotation
				JOINT LeftToeBase
				{
					OFFSET 5.346399 -15.068900 20.645000
					CHANNELS 3 Xrotation Yrotation Zrotation
					JOINT LeftToe_End
					{
						OFFSET 2.754700 0.931300 11.300900
						CHANNELS 3 Xrotation Yrotation Zrotation
						End Site
						{
							OFFSET 0.000000 11.669021 0.000000
						}
					}
				}
			}
		}
	}
	JOINT RightUpLeg
	{
		OFFSET -15.569500 -6.655098 0.678600
		CHANNELS 3 Xrotation Yrotation Zrotation
		JOINT RightLeg
		{
			OFFSET -4.081825 -39.591045 13.023800
			CHANNELS 3 Xrotation Yrotation Zrotation
			JOINT RightFoot
			{
				OFFSET 4.081824 -37.707954 -15.979600
				CHANNELS 3 Xrotation Yrotation Zrotation
				JOINT RightToeBase
				{
					OFFSET -5.346400 -15.068900 20.645000
					CHANNELS 3 Xrotation Yrotation Zrotation
					JOINT RightToe_End
					{
						OFFSET -2.754700 0.931300 11.300900
						CHANNELS 3 Xrotation Yrotation Zrotation
						End Site
						{
							OFFSET 0.000000 11.669021 0.000000
						}
					}
				}
			}
		}
	}
}
MOTION
Frames: 4
Frame Time: 0.033333
-2.217644 91.199051 -1.106837 -3.614161 32.684333 5.234532 0.204255 0.830407 0.189906 0.424426 1.889536 -0.426385 0.424426 1.889542 -0.426386 4.173853 -4.679974 2.906518 -3.077238 -22.348241 4.862489 -0.000000 0.000000 0.000001 0.740652 -0.064708 -14.816560 21.318991 10.317347 -68.727993 0.594390 -27.930821 0.278352 8.572074 -14.720531 1.480219 -10.722915 -6.084432 5.902393 19.826675 41.393928 -16.386524 0.000001 0.000003 -0.000006 -0.000003 -0.000001 -0.000001 -5.772878 11.394696 -49.115730 1.177194 2.201401 -29.597727 -0.000000 0.000003 0.000002 0.000000 0.000003 0.000001 1.819864 9.360765 -39.110923 -0.024088 -0.704232 -18.065188 -0.000002 0.000001 0.000004 -0.000000 -0.000002 0.000002 0.851386 4.374580 -41.891107 -0.605009 -1.145719 -25.016866 0.000003 0.000001 0.000005 0.000000 -0.000001 -0.000000 4.318815 -0.329425 -66.182477 -0.594884 -2.573565 -15.222077 0.000000 0.000000 0.000002 0.000000 0.000001 0.000000 1.045954 14.017128 4.766531 -54.968994 11.293281 37.952759 2.219712 31.261291 -1.152252 -29.320151 -0.525128 0.285330 -14.218244 2.797245 -12.971073 14.105546 -28.359278 7.198685 -0.000001 0.000001 0.000003 -0.000001 0.000000 0.000000 -8.116492 -4.645706 24.773921 0.414873 -1.500143 25.725312 -0.000000 -0.000000 0.000002 -0.000000 -0.000000 0.000002 -1.244015 -3.709011 24.976060 -1.195279 2.509049 46.164091 -0.000000 0.000000 -0.000000 -0.000000 -0.000000 0.000000 -0.403246 -5.666071 28.952045 -0.890438 1.436391 42.339865 -0.000002 -0.000000 -0.000000 -0.000000 -0.000000 -0.000000 0.331945 -1.427933 31.393899 -0.158904 1.417877 14.108514 0.000006 0.000001 -0.000007 0.000000 0.000000 0.000002 -0.824728 5.729870 -3.278652 24.349968 -1.825961 -1.165678 -21.976894 40.507629 6.743465 4.334301 0.484388 -4.459706 0.000000 0.000001 0.000000 -20.489198 2.765429 -9.990198 28.011120 0.153854 1.062618 0.601150 -38.938492 6.898275 0.122746 -0.001859 0.122869 -0.000000 0.000001 -0.000000 
-2.267249 91.204849 -1.055791 -3.482121 32.970126 5.135959 0.211698 0.836813 0.190606 0.439308 1.898837 -0.421275 0.439308 1.898854 -0.421275 4.083507 -4.698622 2.853511 -3.382554 -22.475122 4.728312 -0.000000 -0.000000 0.000000 0.743028 0.013507 -14.777155 21.144988 10.230238 -68.596184 0.598372 -27.881655 0.279780 8.571314 -14.912340 1.500105 -8.526345 -3.289015 7.143714 20.013819 41.570352 -16.536137 -0.000001 0.000001 -0.000006 -0.000001 -0.000001 -0.000002 -5.364386 11.677871 -50.482802 1.185891 2.212987 -29.804490 0.000001 0.000003 -0.000003 0.000000 -0.000002 -0.000001 2.106242 9.522228 -40.381161 -0.024965 -0.708993 -18.155614 -0.000002 0.000001 0.000006 0.000000 0.000000 0.000004 1.023168 4.537087 -42.919109 -0.617822 -1.170077 -25.306235 0.000001 0.000002 0.000007 0.000002 0.000000 0.000000 4.493566 -0.150065 -65.000383 -0.599491 -2.586568 -15.296921 -0.000001 -0.000001 0.000002 -0.000000 -0.000002 -0.000000 1.066911 13.933816 4.501605 -55.859760 10.548919 38.619758 2.033632 30.554537 -1.034073 -31.801904 0.424576 -2.624275 -14.848688 3.950420 -12.858453 13.901048 -28.054264 7.098653 -0.000002 -0.000001 0.000002 -0.000000 -0.000001 0.000000 -8.222859 -4.444199 24.944840 0.413223 -1.497463 25.660421 -0.000000 0.000001 0.000000 -0.000000 -0.000000 -0.000002 -1.187500 -3.780520 24.523646 -1.099560 2.414059 44.126809 -0.000000 0.000000 -0.000000 -0.000001 0.000000 -0.000000 -0.401420 -5.657803 28.739295 -0.850184 1.388379 41.385769 -0.000002 0.000000 -0.000001 0.000000 0.000000 -0.000000 0.338566 -1.402018 31.081838 -0.147236 1.336597 13.388294 0.000006 0.000002 -0.000006 -0.000000 -0.000000 0.000000 -1.007423 6.192591 -3.090321 24.357558 -2.247843 -1.190799 -21.931229 40.178533 6.747699 4.244189 0.480179 -4.380532 -0.000000 0.000001 0.000000 -20.519333 2.774497 -9.922083 28.019924 0.156741 1.064343 0.534433 -39.227067 6.877448 0.102993 -0.001533 0.103161 -0.000000 -0.000000 -0.000000 
-2.326462 91.162849 -1.015235 -3.292093 33.046381 4.874722 0.233031 0.896257 0.239891 0.482191 2.016542 -0.324295 0.482191 2.016527 -0.324295 3.866309 -4.712239 2.775626 -3.876435 -22.537932 4.490016 -0.000000 0.000000 0.000001 0.756881 0.350046 -14.744686 20.885935 10.168032 -68.460577 0.622030 -27.936939 0.291353 8.581085 -14.960303 1.181418 -8.223976 -2.776995 7.011093 20.252110 41.792616 -16.726720 -0.000004 0.000003 -0.000006 -0.000001 0.000000 -0.000001 -5.026048 11.913612 -51.089299 1.184720 2.211435 -29.776681 0.000003 0.000003 0.000002 -0.000000 -0.000000 0.000003 2.251396 9.680350 -40.466849 -0.024956 -0.708973 -18.155346 0.000001 0.000003 -0.000000 -0.000002 0.000001 0.000004 1.043099 4.564662 -42.733857 -0.611803 -1.158689 -25.171018 0.000001 0.000001 0.000005 -0.000000 0.000002 0.000002 4.915562 -0.026843 -66.120234 -0.591757 -2.564713 -15.171098 -0.000002 -0.000001 -0.000000 0.000002 0.000000 -0.000001 1.116170 13.334122 3.619500 -59.802787 6.507425 41.301310 1.515297 29.836756 -0.753942 -52.336926 12.767808 -10.888057 -15.976465 6.280303 -13.087321 14.232076 -28.546426 7.262624 0.000003 0.000002 0.000002 0.000001 0.000001 -0.000002 -8.237982 -4.053295 23.293397 0.371422 -1.428725 24.020676 0.000002 0.000003 -0.000000 0.000002 0.000002 0.000001 -0.675132 -4.834558 21.972618 -0.813599 2.082778 37.509015 0.000000 0.000004 0.000002 -0.000002 -0.000007 0.000000 0.011293 -6.609967 24.485421 -0.639890 1.108651 36.051815 -0.000004 -0.000004 -0.000003 -0.000001 -0.000002 -0.000001 0.917816 -2.146517 28.151415 -0.128437 1.187801 12.072187 0.000006 0.000003 -0.000011 -0.000000 -0.000000 0.000000 -1.240728 6.684630 -2.727396 24.484025 -2.559917 -1.240217 -21.964336 39.922012 6.534704 4.185763 0.470362 -4.245512 0.000000 0.000000 0.000000 -20.606124 3.379015 -9.519857 28.061841 0.139897 1.062017 0.576342 -39.847839 6.912211 0.052718 -0.000767 0.052999 -0.000000 -0.000000 -0.000000 
-2.382722 91.079544 -0.959970 -2.983258 32.830701 4.325713 0.265422 0.959054 0.322805 0.546959 2.144231 -0.176026 0.546959 2.144231 -0.176026 3.549569 -4.766053 2.826085 -4.541307 -22.710985 4.437599 -0.000000 0.000001 0.000000 0.754566 0.409470 -14.598607 20.969517 10.750887 -68.765593 0.663214 -28.695827 0.318394 8.488243 -14.686732 1.327677 -10.619168 -5.677378 5.344000 20.110778 41.661108 -16.613687 -0.000002 0.000002 -0.000004 -0.000002 -0.000003 -0.000001 -5.188101 11.799428 -50.868360 1.175790 2.199532 -29.564166 -0.000000 0.000003 0.000002 -0.000001 0.000001 0.000001 1.865296 9.294921 -39.973067 -0.024293 -0.705331 -18.086100 0.000001 0.000002 -0.000003 0.000000 -0.000002 -0.000003 0.742236 4.257344 -41.581744 -0.597758 -1.131801 -24.851889 0.000005 0.000001 0.000002 0.000002 0.000001 0.000002 4.857603 -0.231737 -68.091870 -0.578075 -2.525693 -14.946611 -0.000001 -0.000000 -0.000001 0.000001 -0.000001 0.000000 1.101461 10.867166 1.815207 -65.236995 0.146701 44.670807 1.291735 32.338101 -0.690955 -72.288776 20.127881 -13.588761 -15.877249 7.022003 -14.421972 13.532642 -27.498932 6.916518 -0.000001 0.000003 0.000002 -0.000001 -0.000000 0.000000 -7.652258 -4.934103 19.803196 0.316899 -1.331043 21.737478 -0.000004 -0.000000 -0.000005 -0.000002 -0.000001 -0.000001 -0.301290 -5.617176 16.916511 -0.533075 1.662676 29.874455 -0.000001 -0.000001 0.000001 -0.000002 -0.000002 0.000001 0.176021 -7.400442 16.303484 -0.391097 0.686034 28.578461 0.000000 0.000000 -0.000001 0.000001 0.000001 -0.000000 1.808596 -3.585100 22.199525 -0.101969 0.899742 9.533897 0.000006 0.000001 -0.000005 0.000001 -0.000001 -0.000002 -1.556438 7.150783 -2.100392 24.770390 -2.549363 -1.234276 -22.027481 39.701636 5.891782 3.581345 0.458072 -3.753484 -0.000000 -0.000001 -0.000000 -20.754170 5.039114 -8.520695 28.087398 0.070280 1.049541 0.833897 -41.194199 6.995020 -0.000184 -0.001322 0.004379 0.000000 -0.000001 -0.000000 
